<svg width="215" height="215" viewBox="0 0 215 215" fill="none" xmlns="http://www.w3.org/2000/svg">
<path d="M188.125 53.75L107.5 134.375L73.9062 100.781" stroke="#40C057" stroke-width="2" stroke-miterlimit="10"/>
<path d="M179.391 90.7031C180.734 96.0781 181.406 101.453 181.406 107.5C181.406 148.484 148.484 181.406 107.5 181.406C66.5156 181.406 33.5938 148.484 33.5938 107.5C33.5938 66.5156 66.5156 33.5938 107.5 33.5938C127.656 33.5938 145.797 41.6563 158.562 54.4219L167.969 45.0156C152.516 29.5625 131.016 20.1562 107.5 20.1562C59.125 20.1562 20.1562 59.125 20.1562 107.5C20.1562 155.875 59.125 194.844 107.5 194.844C155.875 194.844 194.844 155.875 194.844 107.5C194.844 98.0938 193.5 88.6875 190.141 79.9531L179.391 90.7031Z" fill="#40C057"/>
</svg>
